<svg width="456" height="200" viewBox="0 0 456 200" fill="none" xmlns="http://www.w3.org/2000/svg">
<path d="M123.782 18.4319C121.173 22.0797 118.974 25.1476 116.293 28.892V0C122.84 6.42581 129.145 12.5859 136.126 19.4224C132.502 19.2533 129.749 19.1083 126.101 18.9392C127.671 20.6544 128.637 21.8623 129.749 22.9252C141.223 33.7959 155.186 40.0768 170.212 44.111C196.084 51.0925 222.464 51.6964 248.988 49.9571C271.43 48.4835 293.848 48.3869 316.097 52.1795C340.303 56.2863 363.059 64.1615 382.698 79.4289C395.961 89.7198 406.421 102.257 412.581 118.08C412.75 118.539 413.04 118.95 413.62 120.061C414.828 118.249 415.818 116.848 416.712 115.375C421.64 107.306 426.52 99.2136 431.496 91.1693C431.955 90.4204 432.945 89.4782 433.694 89.4782C440.917 89.3575 448.116 89.4058 455.943 89.4058C454.276 92.0147 452.923 94.1647 451.498 96.3147C442.802 109.48 434.057 122.646 425.457 135.884C424.611 137.213 424.297 139.097 424.273 140.716C424.225 151.369 424.321 162.046 424.394 172.7C424.394 173.787 424.394 174.874 424.394 176.203C423.307 176.323 422.437 176.468 421.567 176.468C416.132 176.468 410.697 176.372 405.261 176.517C402.918 176.589 402.145 175.84 402.169 173.449C402.29 162.481 402.29 151.514 402.169 140.547C402.169 138.759 401.638 136.706 400.671 135.232C393.69 124.554 387.216 113.539 378.326 104.19C363.783 88.9226 346.366 78.7524 325.905 73.607C309.671 69.5244 293.172 68.1716 276.552 68.1958C253.627 68.2441 230.677 69.0413 207.752 68.8238C183.039 68.5823 160.694 61.1419 142.818 43.4588C136.657 37.3712 131.85 29.9308 126.487 23.046C125.521 21.8139 124.869 20.3404 123.758 18.4319H123.782Z" fill="#007BC0"/>
<path d="M0.24195 89.2608C1.32902 89.1884 2.12621 89.1159 2.9234 89.1159C21.0413 89.1159 39.135 88.9226 57.2529 89.1884C67.9062 89.3575 76.4096 94.3097 82.3764 103.079C87.2803 110.253 86.6522 119.192 81.241 126.487C80.5405 127.453 79.7433 128.371 78.8978 129.41C79.2843 129.917 79.5742 130.449 80.009 130.811C93.4887 141.899 91.7977 160.621 76.5062 171.275C71.1916 174.971 65.249 176.831 58.654 176.782C40.1496 176.662 21.6211 176.734 3.11666 176.782C1.11161 176.782 -0.0237794 176.565 0.000377784 174.053C0.0728494 146.489 0.0486922 118.926 0.0486922 91.3625C0.0486922 90.7827 0.145321 90.203 0.24195 89.285V89.2608ZM39.5699 141.175C39.5699 141.175 39.5699 141.368 39.5699 141.44C34.2553 141.44 28.9165 141.513 23.602 141.416C21.5728 141.368 20.6789 141.972 20.7514 144.122C20.8722 148.035 20.8963 151.949 20.7514 155.862C20.6548 158.133 21.5244 158.785 23.7227 158.761C33.7721 158.664 43.8215 158.858 53.8468 158.64C56.4557 158.592 59.2097 157.795 61.6254 156.732C64.5001 155.5 65.9254 152.988 65.7804 149.678C65.6596 146.489 64.0169 144.436 61.2872 143.131C60.2967 142.648 59.2338 142.141 58.1709 142.093C51.9867 141.73 45.7783 141.465 39.5699 141.175ZM37.13 122.356V122.211C42.2513 122.211 47.3968 122.549 52.494 122.115C56.5282 121.776 60.5866 120.496 61.9394 115.906C63.3889 111.051 59.5479 106.654 53.4119 106.485C43.3867 106.171 33.3373 106.243 23.2879 106.074C21.5244 106.05 20.7031 106.63 20.7514 108.49C20.8239 112.307 20.8239 116.124 20.7514 119.94C20.7031 121.801 21.5003 122.405 23.2638 122.38C27.8778 122.308 32.516 122.38 37.13 122.38V122.356Z" fill="black"/>
<path d="M243.119 176.444C236.62 176.444 230.605 176.492 224.59 176.372C224.01 176.372 223.213 175.26 222.947 174.512C222.657 173.714 222.851 172.724 222.851 171.83C222.851 145.668 222.851 119.506 222.851 93.3676C222.851 90.7264 224.171 89.4058 226.812 89.4058C245.534 89.4058 264.232 89.3333 282.954 89.4299C299.212 89.5266 312.619 104.021 311.532 120.11C310.541 134.749 296.748 147.6 282.06 147.6C270.199 147.6 258.313 147.673 246.452 147.528C243.771 147.504 243.022 148.325 243.07 150.958C243.239 159.293 243.119 167.627 243.119 176.468V176.444ZM261.865 108.828C256.55 108.828 251.211 108.876 245.897 108.78C243.867 108.756 243.022 109.36 243.094 111.534C243.239 116.244 243.239 120.979 243.094 125.69C243.022 128.009 243.867 128.613 246.042 128.589C256.091 128.516 266.14 128.661 276.166 128.468C278.702 128.42 281.335 127.647 283.679 126.632C287.93 124.748 289.283 121.825 288.776 117.09C288.341 113.201 285.925 110.495 281.722 109.505C279.982 109.094 278.147 108.901 276.359 108.876C271.552 108.804 266.72 108.852 261.889 108.852L261.865 108.828Z" fill="#007BC0"/>
<path d="M164.052 156.756C165.743 156.756 166.927 156.756 168.086 156.756C181.179 156.756 194.249 156.756 207.342 156.756C210.015 156.756 211.352 158.141 211.352 160.911C211.352 166.032 211.352 171.154 211.352 176.396C207.414 176.879 204.298 177.29 201.351 173.497C195.432 165.887 182.991 164.994 175.454 170.936C174.44 171.734 173.425 172.579 172.265 173.497C167.869 169.463 162.965 166.854 156.805 167.119C151.273 167.361 146.296 169.221 143.084 173.618C140.161 177.676 136.658 176.662 132.696 176.468C132.696 170.043 132.575 163.81 132.817 157.602C132.865 156.466 134.194 155.234 135.184 154.316C150.524 140.088 165.888 125.883 181.276 111.727C181.928 111.123 182.846 110.833 183.619 110.398C183.378 110.012 183.16 109.65 182.919 109.263C181.88 109.215 180.865 109.094 179.827 109.094C165.936 109.094 152.046 109.021 138.155 109.142C135.643 109.142 134.822 108.418 134.918 105.905C135.088 100.494 134.967 95.0586 134.967 89.3575H211.303C211.303 96.3631 211.424 103.272 211.183 110.181C211.159 111.316 209.782 112.524 208.791 113.466C194.176 127.429 179.513 141.344 164.873 155.282C164.68 155.476 164.583 155.79 164.028 156.78L164.052 156.756Z" fill="black"/>
<path d="M298.487 176.444C302.69 166.322 306.604 156.756 310.59 147.214C318.199 128.927 325.857 110.688 333.37 92.3771C334.336 90.0338 335.52 89.2125 338.008 89.3091C343.033 89.5024 348.057 89.285 353.082 89.4541C354.073 89.5024 355.57 90.3962 355.933 91.29C367.673 119.167 379.293 147.093 390.936 175.019C391.033 175.285 391.033 175.599 391.13 176.275C390.019 176.347 388.98 176.468 387.941 176.468C382.82 176.468 377.674 176.323 372.553 176.541C369.968 176.662 368.736 175.647 367.915 173.4C366.659 169.898 365.161 166.491 363.905 162.989C363.228 161.08 362.141 160.38 360.112 160.38C350.063 160.452 339.989 160.476 329.94 160.38C327.645 160.38 326.558 161.249 325.833 163.423C324.577 167.24 323.031 170.96 321.46 174.656C321.146 175.405 320.156 176.372 319.48 176.372C312.667 176.492 305.831 176.444 298.439 176.444H298.487ZM334.964 140.933H355.015C351.681 132.647 348.565 124.893 345.424 117.114C345.062 117.162 344.724 117.211 344.361 117.283C341.269 125.038 338.177 132.792 334.94 140.933H334.964Z" fill="#007BC0"/>
<path d="M121.27 133.179C121.27 146.658 121.221 160.162 121.318 173.642C121.318 175.937 120.787 176.879 118.298 176.782C113.177 176.613 108.032 176.662 102.91 176.758C100.978 176.782 100.253 176.178 100.253 174.173C100.301 146.707 100.301 119.216 100.253 91.749C100.253 89.8164 100.881 89.0676 102.862 89.0917C107.983 89.1884 113.129 89.2367 118.25 89.0676C120.642 88.9951 121.318 89.744 121.318 92.1114C121.221 105.809 121.27 119.481 121.27 133.179Z" fill="black"/>
<path d="M187.17 199.973C179.633 200.046 173.763 194.32 173.618 186.783C173.497 179.488 179.367 173.28 186.47 173.159C194.442 173.038 200.384 178.739 200.433 186.566C200.481 194.127 194.756 199.925 187.146 199.997L187.17 199.973ZM187.146 180.454C183.788 180.382 180.889 183.087 180.793 186.421C180.696 189.658 183.522 192.654 186.784 192.799C190.214 192.944 193.234 190.069 193.234 186.638C193.234 183.256 190.576 180.551 187.146 180.478V180.454Z" fill="#007BC0"/>
<path d="M144.074 186.349C144.195 178.667 150.113 173.062 157.916 173.207C165.163 173.352 170.985 179.367 170.961 186.663C170.912 194.2 164.776 200.142 157.167 199.997C149.678 199.852 143.953 193.886 144.098 186.349H144.074ZM157.481 180.406C154.123 180.406 151.345 183.16 151.297 186.493C151.273 190.045 154.027 192.799 157.578 192.75C160.887 192.702 163.689 189.851 163.665 186.542C163.665 183.256 160.791 180.43 157.457 180.43L157.481 180.406Z" fill="#007BC0"/>
</svg>
